<svg width="24" height="24" viewBox="0 0 24 24" fill="none" xmlns="http://www.w3.org/2000/svg">
<path fill-rule="evenodd" clip-rule="evenodd" d="M11.9994 22C9.75478 22.0035 7.57476 21.2485 5.81311 19.8573H5.81445L6.17843 19.1267C8.25831 15.9733 10.5289 14.216 12.9581 13.436C13.1807 13.3653 13.406 13.3013 13.6327 13.2453C14.4926 15.504 15.0646 17.8707 15.3899 20.4507V21.4107C14.3326 21.792 13.19 22 11.9994 22ZM20.0094 17.9873C19.1337 19.1589 18.012 20.1244 16.7232 20.816V20.408C16.7232 20.3787 16.7219 20.352 16.7178 20.3253C16.3912 17.7093 15.8192 15.3013 14.9686 13.008C16.8512 12.796 18.8711 13.0573 21.0389 13.6947L21.7922 14.0347C21.4937 15.4666 20.8852 16.8158 20.0094 17.9873ZM19.571 5.46934C21.2887 7.45422 22.1536 10.0369 21.9776 12.656L21.5469 12.4613C21.5188 12.4487 21.4899 12.438 21.4603 12.4293C19.0324 11.7107 16.6885 11.4093 14.4593 11.7293C14.2153 11.152 13.9513 10.5827 13.6687 10.0173C15.8339 9.12134 17.6151 7.80534 19.175 5.90801L19.571 5.46934ZM11.9994 2.00001C14.4449 1.99636 16.8062 2.89236 18.6337 4.51734V4.51867L18.1751 5.02534C18.1682 5.03318 18.1616 5.04118 18.1551 5.04934C16.7312 6.78667 15.1006 8.00134 13.0434 8.832C11.9421 6.84667 10.5929 4.90534 8.96627 2.94134L8.66229 2.57068C9.70623 2.20001 10.8288 2.00001 11.9994 2.00001ZM3.88945 6.14862C4.80447 4.88021 6.00395 3.84386 7.3917 3.12266L7.93567 3.788L7.93701 3.78933C9.45959 5.62933 10.7289 7.43866 11.7688 9.28266C9.37426 10.016 6.44242 10.34 2.70263 10.4267H2.12266C2.36933 8.8822 2.97443 7.41702 3.88945 6.14862ZM2 12L2.00267 11.76L2.004 11.7587H2.72529C6.63975 11.6693 9.78891 11.3227 12.4088 10.4787C12.662 10.9783 12.9008 11.4852 13.1247 11.9987C12.9327 12.0493 12.7407 12.1053 12.5514 12.1667C9.75424 13.064 7.25305 15.064 5.0425 18.4266C5.02779 18.4489 5.01443 18.4721 5.0025 18.496L4.78785 18.928C3.06128 17.1306 2 14.6893 2 12Z" fill="white"/>
</svg>
