<svg width="24" height="24" viewBox="0 0 24 24" fill="none" xmlns="http://www.w3.org/2000/svg">
<path d="M22 17.25V6.75C22 5.78167 21.2122 5 20.2363 5H3.76367C2.78777 5 2 5.78167 2 6.75V17.25C2 18.2183 2.78777 19 3.76367 19H20.2363C21.2122 19 22 18.2183 22 17.25ZM20.4597 6.62167C20.8477 7.00667 20.6361 7.40333 20.4245 7.60167L15.6508 11.9417L20.2363 16.6783C20.3774 16.8417 20.4715 17.0983 20.3069 17.2733C20.154 17.46 19.8013 17.4483 19.6484 17.3317L14.5103 12.98L11.9941 15.255L9.48971 12.98L4.35156 17.3317C4.19871 17.4483 3.84597 17.46 3.69312 17.2733C3.52851 17.0983 3.62258 16.8417 3.76367 16.6783L8.34921 11.9417L3.57554 7.60167C3.3639 7.40333 3.15226 7.00667 3.54027 6.62167C3.92828 6.23667 4.32804 6.42333 4.65726 6.70333L11.9941 12.5833L19.3427 6.70333C19.672 6.42333 20.0717 6.23667 20.4597 6.62167Z" fill="white"/>
</svg>
